<svg width="24" height="24" viewBox="0 0 24 24" fill="none" xmlns="http://www.w3.org/2000/svg">
<mask id="mask0" mask-type="alpha" maskUnits="userSpaceOnUse" x="1" y="0" width="22" height="24">
<path fill-rule="evenodd" clip-rule="evenodd" d="M21.7342 18.4145C21.5073 18.2073 19.6784 16.4509 19.6784 10.6036C19.6784 8.68909 18.522 6.46909 17.1818 4.90909C16.5045 4.11907 15.6602 3.48935 14.7098 3.06545C14.719 3.01689 14.724 2.96761 14.7245 2.91818C14.6594 1.30984 13.3366 0.0395126 11.727 0.0395126C10.1173 0.0395126 8.79455 1.30984 8.72945 2.91818C8.73003 2.96761 8.73496 3.01689 8.74417 3.06545C7.79406 3.4895 6.94993 4.1192 6.27272 4.90909C4.97779 6.52361 4.27685 8.534 4.28727 10.6036C4.28727 16.4455 2.46381 18.1909 2.23527 18.3982C1.59427 18.6917 1.25123 19.3984 1.41708 20.0836C1.59397 20.8065 2.25642 21.3042 2.99999 21.2727H7.90908C7.95034 21.754 8.17773 22.2002 8.5429 22.5164C9.42827 23.4637 10.6672 24.001 11.9638 23.9999C13.2605 23.9989 14.4985 23.4596 15.3824 22.5109C15.7039 22.1533 15.9454 21.7311 16.0909 21.2727H21C21.7386 21.3089 22.3996 20.8176 22.578 20.1C22.7322 19.4091 22.3797 18.705 21.7342 18.4145ZM11.7273 1.59273C12.2935 1.63612 12.787 1.9948 13.0031 2.52C12.7685 2.47418 12.531 2.54468 12.2921 2.61559C12.1044 2.67131 11.9159 2.72727 11.7273 2.72727C11.5386 2.72727 11.35 2.67132 11.1622 2.61561C10.9232 2.54469 10.6855 2.47418 10.4509 2.52C10.6673 1.9948 11.1609 1.63617 11.7273 1.59273ZM18.0289 10.6036C18.0289 7.56 15.1554 3.81818 11.7273 3.81818C8.29908 3.81818 5.93672 7.56 5.93672 10.6036C5.93987 12.3693 5.68556 14.1259 5.18181 15.8182H18.8182C18.3004 14.1282 18.0345 12.3711 18.0289 10.6036ZM11.9613 22.2818C11.1262 22.2818 10.6784 21.8836 10.0909 21.2727H13.9091C13.4418 21.8816 12.7281 22.2513 11.9613 22.2818ZM4.63636 17.4545C3.90218 19.1236 3.09108 19.6255 3.09108 19.6255H20.9089C20.9089 19.6255 20.0978 19.1236 19.3636 17.4545H4.63636Z" fill="white"/>
</mask>
<g mask="url(#mask0)">
<rect width="24" height="24" fill="#fff"/>
</g>
</svg>
